<svg xmlns="http://www.w3.org/2000/svg" fill="none" viewBox="0 0 103 17">
  <path fill="#BDBEC2" fill-opacity=".7" d="m94.37 0 1.88 5.87h6.08L97.4 9.5l1.88 5.88-4.92-3.63-4.92 3.63 1.88-5.88-4.92-3.63h6.08L94.37 0ZM72.37 0l1.88 5.87h6.08L75.4 9.5l1.88 5.88-4.92-3.63-4.92 3.63 1.88-5.88-4.92-3.63h6.08L72.37 0ZM50.37 0l1.88 5.87h6.08L53.4 9.5l1.88 5.88-4.92-3.63-4.92 3.63 1.88-5.88-4.92-3.63h6.08L50.37 0ZM30.37 0l1.88 5.87h6.08L33.4 9.5l1.88 5.88-4.92-3.63-4.92 3.63 1.88-5.88-4.92-3.63h6.08L30.37 0ZM8.37 0l1.88 5.87h6.08L11.4 9.5l1.88 5.88-4.92-3.63-4.92 3.63L5.33 9.5.4 5.87h6.08L8.37 0Z"/>
</svg>
