<svg xmlns="http://www.w3.org/2000/svg" viewBox="0 0 40 40"><path d="M34.087 17.312a.669.669 0 0 1-.475-.197l-6.801-6.8a.671.671 0 0 1 .949-.95l6.8 6.801a.67.67 0 0 1-.473 1.146M32.474 18.925a.669.669 0 0 1-.474-.197l-6.801-6.8a.67.67 0 1 1 .949-.95l6.8 6.801a.67.67 0 0 1-.474 1.146M30.929 20.47a.668.668 0 0 1-.475-.197l-6.8-6.8a.67.67 0 0 1 .948-.949l6.801 6.8a.67.67 0 0 1-.474 1.146"/><path d="M22.547 18.256a.67.67 0 0 1-.474-1.145l2.877-2.878a.67.67 0 0 1 .948.949L23.02 18.06a.668.668 0 0 1-.473.196M26.341 22.051a.67.67 0 0 1-.474-1.145l2.878-2.878a.671.671 0 0 1 .949.95l-2.878 2.877a.667.667 0 0 1-.475.196M32.168 13.635a1.326 1.326 0 1 1-1.875-1.875 1.326 1.326 0 0 1 1.875 1.875ZM5.913 17.304a.67.67 0 0 1-.474-1.145l6.8-6.8a.67.67 0 0 1 .949.948l-6.801 6.8a.67.67 0 0 1-.474.197M7.526 18.917a.67.67 0 0 1-.474-1.145l6.8-6.8a.671.671 0 0 1 .949.948l-6.8 6.8a.669.669 0 0 1-.475.197M9.071 20.463a.67.67 0 0 1-.474-1.146l6.8-6.8a.67.67 0 0 1 .95.948l-6.801 6.801a.671.671 0 0 1-.475.197"/><path d="M13.658 22.044a.67.67 0 0 1-.474-.197l-2.878-2.877a.67.67 0 1 1 .949-.949l2.877 2.878a.67.67 0 0 1-.474 1.145M17.453 18.249a.669.669 0 0 1-.474-.197l-2.878-2.878a.67.67 0 1 1 .95-.948l2.877 2.877a.67.67 0 0 1-.475 1.146M9.708 11.751a1.326 1.326 0 1 1-1.876 1.876 1.326 1.326 0 0 1 1.876-1.876Z"/><path d="M20.004 31.418c-1.92 0-3.84-.73-5.302-2.193-2.923-2.923-2.923-7.68 0-10.604 2.924-2.924 7.68-2.924 10.604 0 2.924 2.924 2.924 7.68 0 10.604a7.475 7.475 0 0 1-5.302 2.193Zm0-13.648c-1.577 0-3.153.6-4.353 1.8a6.163 6.163 0 0 0 0 8.707c2.4 2.4 6.306 2.4 8.706 0 2.4-2.4 2.4-6.306 0-8.707a6.138 6.138 0 0 0-4.353-1.8Zm4.827 10.981h.002-.002Z"/><path d="M12.09 26.542h-1.27c-.926 0-1.68-.753-1.68-1.68v-1.894c0-.927.754-1.68 1.68-1.68h1.27c.927 0 1.68.753 1.68 1.68v1.895c0 .926-.754 1.68-1.68 1.68Zm-1.27-3.912a.342.342 0 0 0-.337.338v1.895c0 .183.154.337.337.337h1.27a.342.342 0 0 0 .338-.337v-1.895a.342.342 0 0 0-.338-.338h-1.27Z"/></svg>