<svg xmlns="http://www.w3.org/2000/svg" fill="none" viewBox="0 0 53 40"><g ><rect width="10.95" height="19.91" x="16.75" y="10.75" stroke="#000" stroke-width="1.5" rx="1.25"/><mask id="a" fill="#fff"><rect width="8.26" height="7.23" x="18.1" y="13.1" rx="1"/></mask><rect width="8.26" height="7.23" x="18.1" y="13.1" stroke="#000" stroke-width="3" mask="url(#a)" rx="1"/><path stroke="#000" stroke-linecap="round" stroke-linejoin="round" stroke-width="1.5" d="M27.95 20.83v0c1.18 0 2.14.96 2.14 2.15v2.66c0 1.34.54 3.49 2.5 3.27 1.96-.23 2.32-2.23 2.32-3.66 0-1.42-.71-4.6-.54-7.3.18-2.69 1.79-5 3.04-5.96"/><rect width="13.45" height="1" x="15.5" y="30.51" fill="#000" stroke="#000" rx=".5"/><path stroke="#000" stroke-width="1.5" d="M35.42 15.48a1.9 1.9 0 0 1 1.43 2.02l-.08.87c-.09.9-.85 1.59-1.75 1.59"/></g></svg>