<svg xmlns="http://www.w3.org/2000/svg" viewBox="0 0 40 40"><path d="M28.76 10.48c.68 0 1.36.05 2.03.1.64.04 1.31.1 1.95.1.23 0 .45-.01.66-.03h.01a.2.2 0 0 1 .16.3c-.41.61-.37 2-.33 3.48.07 1.96.13 4-.81 4.97-.35.36-.83.55-1.4.55s-.9-.9-1.29-1.95c-.35-.94-.78-2.11-1.3-2.11-1.71 0-2.33 3.03-.91 5.53l3.08 5.28a1.16 1.16 0 0 1-.99 1.74c-.34 0-.66-.15-.88-.4l-4.54-4.87c-1.62-.33-3.15-.5-4.55-.5-1.57 0-3.32.21-5.2.63L10 28.03a1.15 1.15 0 0 1-1.62.14 1.16 1.16 0 0 1-.25-1.47l2.9-4.98c.22-2.8-.03-3.7-.28-3.98-.07-.08-.14-.09-.18-.09a.9.9 0 0 0-.67.3c-.7.72-.85 2.6-.83 3.6v.04c0 .1-.09.19-.2.19l-.57-.03c-.77-.03-1.37-.06-1.7-.47-.22-.29-.27-.71-.14-1.34 0-.03 0-.07.02-.12.07-.46.22-1.4.74-2.25a3.3 3.3 0 0 1 3-1.6c.11 0 .22 0 .33.02.44.02.8.21 1.1.38.3.16.57.31.88.31.14 0 .29-.03.44-.1a9.31 9.31 0 0 1 3.7-.67c.58 0 1.21.04 1.92.11l.6.03c1.8 0 2.53-1.02 3.38-2.21a7.62 7.62 0 0 1 2.73-2.64 7.31 7.31 0 0 1 3.45-.72Zm0-1.48c-1.65 0-2.96.28-4.13.88-1.65.86-2.54 2.1-3.25 3.1-.84 1.18-1.19 1.6-2.19 1.6l-.44-.03c-.76-.08-1.43-.12-2.07-.12-1.56 0-2.92.24-4.14.74l-.18-.1a4 4 0 0 0-2.13-.57c-1.85 0-3.32.79-4.25 2.3a7.5 7.5 0 0 0-.95 2.79v.06l-.01.03c-.09.42-.3 1.58.43 2.51.75.95 1.89 1 2.8 1.04h.2l-1.59 2.72a2.63 2.63 0 0 0 4.24 3.08l4.1-4.38c1.61-.33 3.1-.5 4.45-.5 1.17 0 2.44.13 3.8.38l4.2 4.5a2.62 2.62 0 0 0 3.3.53 2.64 2.64 0 0 0 .93-3.6l-3.07-5.28a4.3 4.3 0 0 1-.57-2.5l.12.33c.5 1.37 1.08 2.92 2.66 2.92.98 0 1.83-.35 2.47-1 1.37-1.43 1.3-3.78 1.23-6.05-.03-.84-.07-2.24.09-2.62.33-.52.36-1.2.05-1.74a1.67 1.67 0 0 0-1.55-.84l-.57.01c-.58 0-1.21-.04-1.83-.09-.67-.05-1.41-.1-2.15-.1"/></svg>