<svg xmlns="http://www.w3.org/2000/svg" viewBox="0 0 134 55"><path fill="#48494D" d="m84.48 24-.93-3.06h-4.68L77.94 24H75l4.54-12.9h3.33L87.42 24h-2.94Zm-1.58-5.34a2488 2488 0 0 1-1.46-4.7l-.23-.87c-.19.75-.74 2.6-1.66 5.57h3.35Zm15.81-7.51h2.76L97.1 24h-2.97l-4.36-12.85h2.75l2.42 7.65a26.97 26.97 0 0 1 .68 2.83c.07-.54.29-1.49.66-2.83l2.44-7.65ZM110.4 24h-2.73V13.42h-3.48v-2.27h9.7v2.27h-3.5V24Zm19.47-6.44c0 2.12-.53 3.76-1.58 4.9-1.06 1.14-2.57 1.72-4.54 1.72-1.97 0-3.48-.58-4.53-1.72-1.06-1.14-1.59-2.78-1.59-4.92s.53-3.77 1.59-4.9c1.06-1.13 2.58-1.7 4.55-1.7 1.97 0 3.48.58 4.53 1.71 1.04 1.14 1.57 2.77 1.57 4.9Zm-9.38 0c0 1.43.27 2.51.82 3.24.54.73 1.36 1.1 2.44 1.1 2.18 0 3.26-1.45 3.26-4.34 0-2.9-1.08-4.34-3.24-4.34-1.09 0-1.9.36-2.45 1.1-.55.72-.83 1.8-.83 3.24ZM79.64 45l-2.9-8.35h-.05c.07 1.24.11 2.4.11 3.49V45h-1.48V35h2.3l2.78 7.96h.04L83.3 35h2.3V45h-1.56v-4.94a70.79 70.79 0 0 1 .1-3.4h-.06l-3 8.34h-1.44Zm19.3-5.01c0 1.63-.42 2.9-1.23 3.8a4.4 4.4 0 0 1-3.45 1.35c-1.51 0-2.67-.45-3.48-1.34-.81-.9-1.21-2.17-1.21-3.82s.4-2.92 1.21-3.8c.82-.89 1.98-1.33 3.49-1.33a4.4 4.4 0 0 1 3.45 1.35c.8.9 1.21 2.16 1.21 3.79Zm-7.64 0c0 1.23.25 2.16.75 2.8.5.64 1.23.95 2.2.95.98 0 1.7-.31 2.2-.94.5-.63.75-1.57.75-2.81 0-1.23-.25-2.16-.74-2.79-.49-.63-1.22-.95-2.19-.95-.98 0-1.72.32-2.22.95-.5.63-.75 1.56-.75 2.79ZM106.35 45h-1.63v-8.6h-2.94V35h7.51v1.4h-2.94V45Zm15.17-5.01c0 1.63-.4 2.9-1.22 3.8a4.4 4.4 0 0 1-3.45 1.35c-1.51 0-2.67-.45-3.48-1.34-.81-.9-1.21-2.17-1.21-3.82s.4-2.92 1.21-3.8c.82-.89 1.98-1.33 3.49-1.33a4.4 4.4 0 0 1 3.45 1.35c.8.9 1.21 2.16 1.21 3.79Zm-7.63 0c0 1.23.25 2.16.75 2.8.5.64 1.23.95 2.2.95.98 0 1.7-.31 2.2-.94.5-.63.74-1.57.74-2.81 0-1.23-.24-2.16-.73-2.79-.5-.63-1.22-.95-2.2-.95-.97 0-1.71.32-2.21.95-.5.63-.75 1.56-.75 2.79Z"/><path fill="#D12136" d="m42.15 27.27-6.78-.55a1.83 1.83 0 0 1-1.04-3.22l5.16-4.43a14.7 14.7 0 0 0-7.68-5.6l-2.62 6.3a1.83 1.83 0 0 1-3.38 0l-2.62-6.29c-3.1.97-5.8 2.93-7.68 5.6l5.17 4.43a1.83 1.83 0 0 1-1.05 3.21l-6.78.55-.01.24c0 3.17 1.03 6.26 2.95 8.8l5.8-3.54a1.83 1.83 0 0 1 2.74 1.99l-1.58 6.61a14.48 14.48 0 0 0 9.5 0l-1.57-6.61a1.83 1.83 0 0 1 2.73-2l5.8 3.54a14.57 14.57 0 0 0 2.96-8.8l-.02-.23ZM27.5 30.25a2.75 2.75 0 1 1 0-5.5 2.75 2.75 0 0 1 0 5.5Z"/><path fill="#2B2733" d="M27.5.92a26.58 26.58 0 1 0 0 53.16 26.58 26.58 0 0 0 0-53.16Zm0 41.25a14.67 14.67 0 1 1 0-29.34 14.67 14.67 0 0 1 0 29.34Z"/><path fill="#1A1721" d="M44.87 7.38A26.58 26.58 0 0 1 7.38 44.87 26.58 26.58 0 1 0 44.87 7.38Z"/><path fill="#555160" d="m19.26 5.12 1.75-.57-.85-2.62-1.75.57.85 2.62Z"/><path fill="#3B3944" d="m34.84 53.06 1.75-.56-.85-2.62-1.75.57.85 2.61Z"/><path fill="#555160" d="M28.42.92h-1.84v2.75h1.84V.92Z"/><path fill="#3B3944" d="M28.42 51.33h-1.84v2.75h1.84v-2.75Z"/><path fill="#555160" d="m12.75 8.76 1.48-1.08-1.61-2.22-1.49 1.07 1.62 2.23Z"/><path fill="#3B3944" d="m42.38 49.54 1.48-1.07-1.61-2.23-1.48 1.08 1.61 2.22Z"/><path fill="#555160" d="m7.68 14.23 1.08-1.48-2.23-1.62-1.08 1.49 2.23 1.61Z"/><path fill="#3B3944" d="m48.47 43.87 1.08-1.49-2.23-1.61-1.08 1.48 2.23 1.62Z"/><path fill="#555160" d="m4.55 21 .56-1.74-2.61-.85-.57 1.75 2.62.85Z"/><path fill="#3B3944" d="m52.5 36.6.57-1.75-2.62-.85-.57 1.74 2.62.85Z"/><path fill="#555160" d="M3.67 26.58H.92v1.84h2.75v-1.84Z"/><path fill="#3B3944" d="M54.08 26.58h-2.75v1.84h2.75v-1.84Z"/><path fill="#555160" d="m2.5 36.59 2.62-.85-.57-1.75-2.61.85.56 1.75ZM6.53 43.87l2.22-1.62-1.07-1.48-2.23 1.61 1.08 1.48ZM42.25 8.76l1.62-2.23-1.49-1.08-1.61 2.23 1.48 1.08ZM35.74 5.12l.85-2.62-1.74-.57L34 4.55l1.74.57Z"/><path fill="#3B3944" d="m53.07 20.16-.57-1.74-1.8.58c.13.6.25 1.2.34 1.82l2.03-.66ZM49.55 12.62l-1.08-1.49-.63.46c.3.54.6 1.08.87 1.64l.84-.61ZM11.13 48.47l1.49 1.08.6-.84a26.4 26.4 0 0 1-1.63-.87l-.46.63ZM18.41 52.5l1.74.57.66-2.03c-.61-.09-1.22-.2-1.82-.34l-.58 1.8Z"/><path fill="#555160" d="m50.45 21 .6-.19c-.1-.6-.22-1.21-.35-1.81l-.82.26.57 1.75ZM47.32 14.23l1.4-1a26.4 26.4 0 0 0-.88-1.64l-1.6 1.16 1.08 1.48ZM12.75 46.24l-1.16 1.6c.53.3 1.07.6 1.63.87l1.01-1.39-1.48-1.08ZM19.26 49.88l-.26.82c.6.13 1.2.25 1.81.34l.2-.59-1.75-.57ZM27.5 8.25a19.25 19.25 0 1 0 0 38.5 19.25 19.25 0 0 0 0-38.5Zm0 33.92a14.67 14.67 0 1 1 0-29.34 14.67 14.67 0 0 1 0 29.34Z"/><path fill="#3B3944" d="M40.63 13.45a19.23 19.23 0 0 1-27.18 27.18 19.23 19.23 0 1 0 27.18-27.18Z"/><path fill="#9C1928" d="M35.84 15.46a14.62 14.62 0 0 0-4.03-1.98l-.5 1.21c1.53.08 3.05.34 4.53.77ZM24.08 15.63l-.89-2.15c-3.1.97-5.8 2.93-7.68 5.6l1.08.92a20.14 20.14 0 0 1 7.5-4.37Z"/><path fill="#000" d="M27.5 7.33a20.17 20.17 0 1 0 0 40.34 20.17 20.17 0 0 0 0-40.34Zm0 38.5a18.33 18.33 0 1 1 0-36.66 18.33 18.33 0 0 1 0 36.66Z"/><path fill="#000" d="M27.5 11.92a15.58 15.58 0 1 0 0 31.16 15.58 15.58 0 0 0 0-31.16Zm13.69 14.35-5.74-.46a.92.92 0 0 1-.53-1.61l4.37-3.74a13.63 13.63 0 0 1 1.9 5.81ZM30.56 14.11l-2.21 5.31a.92.92 0 0 1-1.7 0l-2.21-5.31c2.01-.48 4.1-.48 6.12 0Zm-14.85 6.35 4.36 3.74a.92.92 0 0 1-.52 1.61l-5.74.46c.19-2.06.84-4.04 1.9-5.81Zm1.45 16.07 4.9-2.99a.92.92 0 0 1 1.37 1l-1.33 5.6a13.81 13.81 0 0 1-4.94-3.6Zm6.68 4.21 1.37-5.78a2.75 2.75 0 0 0-4.1-2.98l-5.08 3.1a13.66 13.66 0 0 1-2.25-6.97l5.92-.48a2.75 2.75 0 0 0 1.57-4.82l-4.51-3.87a13.8 13.8 0 0 1 5.91-4.3l2.29 5.48a2.75 2.75 0 0 0 5.08 0l2.28-5.48a13.8 13.8 0 0 1 5.92 4.3l-4.5 3.87a2.75 2.75 0 0 0 1.56 4.82l5.92.48c-.1 2.48-.88 4.89-2.25 6.96l-5.08-3.1a2.75 2.75 0 0 0-4.1 2.99l1.37 5.78c-2.4.68-4.93.68-7.32 0Zm9.06-.6-1.34-5.6a.92.92 0 0 1 1.37-1l4.9 3a13.8 13.8 0 0 1-4.93 3.6Z"/><path fill="#000" d="M31.17 27.5a3.67 3.67 0 1 0-7.34 0 3.67 3.67 0 0 0 7.34 0Zm-3.67 1.83a1.83 1.83 0 1 1 0-3.66 1.83 1.83 0 0 1 0 3.66Z"/><path fill="#000" d="M27.5 55a27.5 27.5 0 1 1 0-55 27.5 27.5 0 0 1 0 55Zm0-53.17a25.67 25.67 0 1 0 0 51.34 25.67 25.67 0 0 0 0-51.34Z"/></svg>