<svg xmlns="http://www.w3.org/2000/svg" >
<symbol fill="none" viewBox="0 0 53 40" id="gasoline-icon">
    <g>
      <rect width="10.95" height="19.91" x="16.75" y="10.75" stroke="#000" stroke-width="1.5" rx="1.25"></rect>
      <mask id="a" fill="#fff">
        <rect width="8.26" height="7.23" x="18.1" y="13.1" rx="1"></rect>
      </mask>
      <rect width="8.26" height="7.23" x="18.1" y="13.1" stroke="#000" stroke-width="3" mask="url(#a)" rx="1"></rect>
      <path stroke="#000" stroke-linecap="round" stroke-linejoin="round" stroke-width="1.5" d="M27.95 20.83v0c1.18 0 2.14.96 2.14 2.15v2.66c0 1.34.54 3.49 2.5 3.27 1.96-.23 2.32-2.23 2.32-3.66 0-1.42-.71-4.6-.54-7.3.18-2.69 1.79-5 3.04-5.96"></path>
      <rect width="13.45" height="1" x="15.5" y="30.51" fill="#000" stroke="#000" rx=".5"></rect>
      <path stroke="#000" stroke-width="1.5" d="M35.42 15.48a1.9 1.9 0 0 1 1.43 2.02l-.08.87c-.09.9-.85 1.59-1.75 1.59"></path>
    </g>
  </symbol>
  <symbol fill="none" viewBox="0 0 40 40" id="transmission-icon">
    <g stroke="#000" stroke-width="1.5">
      <path d="M11.194 20h17.612"></path>
      <path stroke-linecap="round" stroke-linejoin="round" stroke-miterlimit="10" d="M11.194 20h17.612"></path>
      <path d="M20 14.53v10.94"></path>
      <path stroke-linecap="round" stroke-linejoin="round" stroke-miterlimit="10" d="M20 14.53v10.94"></path>
      <path d="M28.806 14.53V20"></path>
      <path stroke-linecap="round" stroke-linejoin="round" stroke-miterlimit="10" d="M28.806 14.53V20"></path>
      <path d="M11.194 14.53V25.47"></path>
      <path stroke-linecap="round" stroke-linejoin="round" stroke-miterlimit="10" d="M11.194 14.53V25.47M11.194 14.53a2.686 2.686 0 1 0 0-5.373 2.686 2.686 0 0 0 0 5.373ZM20 14.53a2.686 2.686 0 1 0 0-5.373 2.686 2.686 0 0 0 0 5.373ZM28.806 14.53a2.686 2.686 0 1 0 0-5.373 2.686 2.686 0 0 0 0 5.373ZM11.194 30.843a2.686 2.686 0 1 0 0-5.372 2.686 2.686 0 0 0 0 5.372ZM20 30.843a2.686 2.686 0 1 0 0-5.372 2.686 2.686 0 0 0 0 5.372Z"></path>
    </g>
  </symbol>
  <symbol viewBox="0 0 40 40" id="horse-icon">
    <path d="M28.76 10.48c.68 0 1.36.05 2.03.1.64.04 1.31.1 1.95.1.23 0 .45-.01.66-.03h.01a.2.2 0 0 1 .16.3c-.41.61-.37 2-.33 3.48.07 1.96.13 4-.81 4.97-.35.36-.83.55-1.4.55s-.9-.9-1.29-1.95c-.35-.94-.78-2.11-1.3-2.11-1.71 0-2.33 3.03-.91 5.53l3.08 5.28a1.16 1.16 0 0 1-.99 1.74c-.34 0-.66-.15-.88-.4l-4.54-4.87c-1.62-.33-3.15-.5-4.55-.5-1.57 0-3.32.21-5.2.63L10 28.03a1.15 1.15 0 0 1-1.62.14 1.16 1.16 0 0 1-.25-1.47l2.9-4.98c.22-2.8-.03-3.7-.28-3.98-.07-.08-.14-.09-.18-.09a.9.9 0 0 0-.67.3c-.7.72-.85 2.6-.83 3.6v.04c0 .1-.09.19-.2.19l-.57-.03c-.77-.03-1.37-.06-1.7-.47-.22-.29-.27-.71-.14-1.34 0-.03 0-.07.02-.12.07-.46.22-1.4.74-2.25a3.3 3.3 0 0 1 3-1.6c.11 0 .22 0 .33.02.44.02.8.21 1.1.38.3.16.57.31.88.31.14 0 .29-.03.44-.1a9.31 9.31 0 0 1 3.7-.67c.58 0 1.21.04 1.92.11l.6.03c1.8 0 2.53-1.02 3.38-2.21a7.62 7.62 0 0 1 2.73-2.64 7.31 7.31 0 0 1 3.45-.72Zm0-1.48c-1.65 0-2.96.28-4.13.88-1.65.86-2.54 2.1-3.25 3.1-.84 1.18-1.19 1.6-2.19 1.6l-.44-.03c-.76-.08-1.43-.12-2.07-.12-1.56 0-2.92.24-4.14.74l-.18-.1a4 4 0 0 0-2.13-.57c-1.85 0-3.32.79-4.25 2.3a7.5 7.5 0 0 0-.95 2.79v.06l-.01.03c-.09.42-.3 1.58.43 2.51.75.95 1.89 1 2.8 1.04h.2l-1.59 2.72a2.63 2.63 0 0 0 4.24 3.08l4.1-4.38c1.61-.33 3.1-.5 4.45-.5 1.17 0 2.44.13 3.8.38l4.2 4.5a2.62 2.62 0 0 0 3.3.53 2.64 2.64 0 0 0 .93-3.6l-3.07-5.28a4.3 4.3 0 0 1-.57-2.5l.12.33c.5 1.37 1.08 2.92 2.66 2.92.98 0 1.83-.35 2.47-1 1.37-1.43 1.3-3.78 1.23-6.05-.03-.84-.07-2.24.09-2.62.33-.52.36-1.2.05-1.74a1.67 1.67 0 0 0-1.55-.84l-.57.01c-.58 0-1.21-.04-1.83-.09-.67-.05-1.41-.1-2.15-.1"></path>
  </symbol>
  <symbol viewBox="0 0 40 40" id="engine-icon">
    <path d="M34.087 17.312a.669.669 0 0 1-.475-.197l-6.801-6.8a.671.671 0 0 1 .949-.95l6.8 6.801a.67.67 0 0 1-.473 1.146M32.474 18.925a.669.669 0 0 1-.474-.197l-6.801-6.8a.67.67 0 1 1 .949-.95l6.8 6.801a.67.67 0 0 1-.474 1.146M30.929 20.47a.668.668 0 0 1-.475-.197l-6.8-6.8a.67.67 0 0 1 .948-.949l6.801 6.8a.67.67 0 0 1-.474 1.146"></path>
    <path d="M22.547 18.256a.67.67 0 0 1-.474-1.145l2.877-2.878a.67.67 0 0 1 .948.949L23.02 18.06a.668.668 0 0 1-.473.196M26.341 22.051a.67.67 0 0 1-.474-1.145l2.878-2.878a.671.671 0 0 1 .949.95l-2.878 2.877a.667.667 0 0 1-.475.196M32.168 13.635a1.326 1.326 0 1 1-1.875-1.875 1.326 1.326 0 0 1 1.875 1.875ZM5.913 17.304a.67.67 0 0 1-.474-1.145l6.8-6.8a.67.67 0 0 1 .949.948l-6.801 6.8a.67.67 0 0 1-.474.197M7.526 18.917a.67.67 0 0 1-.474-1.145l6.8-6.8a.671.671 0 0 1 .949.948l-6.8 6.8a.669.669 0 0 1-.475.197M9.071 20.463a.67.67 0 0 1-.474-1.146l6.8-6.8a.67.67 0 0 1 .95.948l-6.801 6.801a.671.671 0 0 1-.475.197"></path>
    <path d="M13.658 22.044a.67.67 0 0 1-.474-.197l-2.878-2.877a.67.67 0 1 1 .949-.949l2.877 2.878a.67.67 0 0 1-.474 1.145M17.453 18.249a.669.669 0 0 1-.474-.197l-2.878-2.878a.67.67 0 1 1 .95-.948l2.877 2.877a.67.67 0 0 1-.475 1.146M9.708 11.751a1.326 1.326 0 1 1-1.876 1.876 1.326 1.326 0 0 1 1.876-1.876Z"></path>
    <path d="M20.004 31.418c-1.92 0-3.84-.73-5.302-2.193-2.923-2.923-2.923-7.68 0-10.604 2.924-2.924 7.68-2.924 10.604 0 2.924 2.924 2.924 7.68 0 10.604a7.475 7.475 0 0 1-5.302 2.193Zm0-13.648c-1.577 0-3.153.6-4.353 1.8a6.163 6.163 0 0 0 0 8.707c2.4 2.4 6.306 2.4 8.706 0 2.4-2.4 2.4-6.306 0-8.707a6.138 6.138 0 0 0-4.353-1.8Zm4.827 10.981h.002-.002Z"></path>
    <path d="M12.09 26.542h-1.27c-.926 0-1.68-.753-1.68-1.68v-1.894c0-.927.754-1.68 1.68-1.68h1.27c.927 0 1.68.753 1.68 1.68v1.895c0 .926-.754 1.68-1.68 1.68Zm-1.27-3.912a.342.342 0 0 0-.337.338v1.895c0 .183.154.337.337.337h1.27a.342.342 0 0 0 .338-.337v-1.895a.342.342 0 0 0-.338-.338h-1.27Z"></path>
  </symbol>
  <symbol viewBox="0 0 17 16" id="star-icon">
    <path d="m8.63 0 1.88 5.87h6.08L11.67 9.5l1.88 5.88-4.92-3.63-4.92 3.63L5.6 9.5.67 5.87h6.08L8.63 0Z"></path>
  </symbol>
</svg>