<?xml version="1.0" standalone="no"?>
<!DOCTYPE svg PUBLIC "-//W3C//DTD SVG 20010904//EN"
 "http://www.w3.org/TR/2001/REC-SVG-20010904/DTD/svg10.dtd">
<svg version="1.0" xmlns="http://www.w3.org/2000/svg"
 width="700.000000pt" height="700.000000pt" viewBox="0 0 700.000000 700.000000"
 preserveAspectRatio="xMidYMid meet">
<metadata>
Created by potrace 1.14, written by Peter Selinger 2001-2017
</metadata>
<g transform="translate(0.000000,700.000000) scale(0.100000,-0.100000)"
fill="#000000" stroke="none">
<path d="M3278 6995 c-1 -1 -42 -5 -89 -9 -47 -4 -95 -8 -105 -10 -10 -2 -41
-7 -69 -10 -414 -54 -855 -204 -1243 -423 -86 -48 -300 -186 -341 -219 -9 -7
-52 -41 -96 -75 -342 -266 -650 -623 -875 -1014 -47 -83 -170 -327 -170 -340
0 -3 -9 -24 -20 -48 -57 -123 -157 -435 -186 -582 -2 -11 -10 -54 -19 -95 -29
-147 -36 -200 -52 -370 -15 -165 -8 -592 12 -711 2 -13 6 -46 9 -74 9 -78 22
-152 51 -285 21 -96 91 -339 114 -395 5 -11 25 -65 46 -120 63 -166 249 -531
312 -610 4 -6 34 -49 65 -95 170 -255 433 -535 708 -755 92 -74 370 -265 386
-265 4 0 15 -6 23 -14 26 -22 298 -158 408 -204 146 -60 384 -141 459 -156 10
-2 57 -13 104 -25 109 -26 200 -43 299 -57 25 -3 57 -8 71 -10 124 -19 544
-26 720 -11 843 71 1650 460 2234 1076 76 81 76 80 152 171 425 510 702 1141
784 1789 7 52 14 106 16 120 9 50 11 527 4 606 -17 172 -22 220 -25 225 -2 3
-6 30 -10 60 -9 75 -69 337 -99 435 -135 446 -345 845 -627 1195 -427 530
-985 918 -1631 1134 -156 52 -409 114 -538 131 -19 3 -46 7 -60 10 -13 2 -52
7 -86 11 -33 3 -74 8 -90 10 -33 5 -540 14 -546 9z m452 -1759 c46 -9 132 -27
147 -31 9 -3 -204 -536 -273 -682 -20 -42 -76 -71 -120 -64 -66 13 -75 29
-223 384 -78 186 -142 343 -144 349 -3 16 60 32 178 44 28 3 51 7 53 9 6 6
345 -3 382 -9z m-1459 -1072 c296 -254 319 -275 320 -306 3 -62 -11 -99 -47
-123 -25 -16 -49 -20 -184 -30 -47 -4 -101 -8 -120 -10 -19 -2 -73 -6 -120
-10 -47 -4 -101 -8 -120 -10 -19 -2 -82 -7 -139 -11 l-103 -6 7 58 c10 96 34
202 72 319 42 134 150 358 168 351 7 -2 127 -102 266 -222z m2792 114 c32 -62
57 -117 57 -121 0 -5 6 -23 14 -40 38 -83 86 -278 101 -405 l7 -54 -114 7
c-62 4 -120 9 -129 10 -8 2 -55 6 -105 9 -49 4 -107 9 -129 11 -22 2 -83 7
-135 11 -52 4 -102 8 -110 9 -8 2 -23 4 -32 4 -24 1 -75 56 -81 87 -2 14 -1
41 4 59 9 32 22 46 139 145 36 30 78 67 95 81 124 110 350 299 355 299 4 0 32
-51 63 -112z m-1480 -563 c120 -50 177 -194 122 -308 -29 -62 -58 -92 -111
-118 -80 -38 -182 -23 -253 37 -98 82 -103 254 -9 341 63 59 174 80 251 48z
m-668 -979 c36 -16 62 -48 68 -85 2 -13 -9 -78 -25 -145 -16 -67 -35 -150 -43
-186 -9 -36 -17 -72 -19 -80 -2 -8 -16 -67 -30 -130 -15 -63 -34 -139 -42
-168 l-15 -53 -89 47 c-106 54 -275 165 -345 226 -60 52 -185 178 -185 187 0
3 30 25 68 47 473 288 587 354 603 354 11 0 35 -6 54 -14z m1385 -70 c69 -42
132 -80 140 -85 8 -6 95 -58 192 -118 98 -59 178 -111 178 -114 0 -11 -123
-133 -191 -191 -56 -47 -150 -116 -210 -153 -9 -5 -62 -34 -118 -63 -70 -36
-103 -49 -106 -40 -2 7 -27 110 -55 228 -28 118 -53 226 -57 240 -3 14 -8 32
-9 40 -2 8 -14 59 -28 114 -13 54 -22 106 -21 115 2 9 4 22 4 30 1 7 17 28 36
47 55 51 92 44 245 -50z"/>
</g>
</svg>
